# xmcd
#
# Track frame offsets:
#	150
#	16625
#	31650
#	46340
#	63130
#	79917
#	100185
#	113210
#	126357
#	139697
#	155275
#	171295
#	184095
#	198905
#	199655
#	200442
#	201255
#	202115
#	202772
#	203422
#	204060
#
# Disc length: 2724
#
# Revision: 1
# Processed by: cddbd v1.5.1PL0 Copyright (c) Steve Scherf et al.
# Submitted via: VisiTrax 2.9.5.180 - For more info visit www.synapsa.com
# Normalized: r0:DSETVAR1
#
DISCID=180aa215
DTITLE=Various Artist - CDX 150 December 1996
DYEAR=1996
DGENRE=
TTITLE0=Brooks and Dunn - A man this lonely
TTITLE1=BR5-49 - Even if it's wrong
TTITLE2=Diamond Rio - Holdin'
TTITLE3=Reba McEntire - How was I to know
TTITLE4=Buffalo Club - If she don't love you
TTITLE5=Brent Lamb - Love lives on
TTITLE6=Regina Regina - More than I wanted to know
TTITLE7=Patty Loveless - She drew a broken heart
TTITLE8=Neal McCoy - That woman of mine
TTITLE9=Deana Carter - We danced anyway
TTITLE10=Kenny Chesney - When I close my eyes
TTITLE11=Scooter Lee - Rompin' stompin' (honky tonkin' good time)
TTITLE12=Doud Supernaw/Herschel Walker - Four scores and seven beers ago
TTITLE13=Brooks and Dunn - Christmas Greetings
TTITLE14=Michelle Wright - Christmas Greetings
TTITLE15=Diamond Rio - Christmas Greetings
TTITLE16=Blackhawk - Christmas Greetings
TTITLE17=Steve Wariner - Christmas Greetings
TTITLE18=Tractors - Christmas Greetings
TTITLE19=BR5-49 - Christmas Greetings
TTITLE20=Tammy Graham - Christmas Greetings
EXTD=
EXTT0=
EXTT1=
EXTT2=
EXTT3=
EXTT4=
EXTT5=
EXTT6=
EXTT7=
EXTT8=
EXTT9=
EXTT10=
EXTT11=
EXTT12=
EXTT13=
EXTT14=
EXTT15=
EXTT16=
EXTT17=
EXTT18=
EXTT19=
EXTT20=
PLAYORDER=
